<svg width="101" height="87" viewBox="0 0 101 87" fill="none" xmlns="http://www.w3.org/2000/svg">
<path d="M67.3333 29C74.03 29 80.4525 31.2915 85.1877 35.3704C89.923 39.4493 92.5833 44.9815 92.5833 50.75V76.125H75.75V50.75C75.75 48.8272 74.8632 46.9831 73.2848 45.6235C71.7063 44.2638 69.5655 43.5 67.3333 43.5C65.1011 43.5 62.9602 44.2638 61.3818 45.6235C59.8034 46.9831 58.9166 48.8272 58.9166 50.75V76.125H42.0833V50.75C42.0833 44.9815 44.7436 39.4493 49.4788 35.3704C54.2141 31.2915 60.6366 29 67.3333 29Z" stroke="#DFDCDC" stroke-width="4" stroke-linecap="round" stroke-linejoin="round"/>
<path d="M25.25 32.625H8.41663V76.125H25.25V32.625Z" stroke="#DFDCDC" stroke-width="4" stroke-linecap="round" stroke-linejoin="round"/>
<path d="M16.8333 21.75C21.4817 21.75 25.25 18.5041 25.25 14.5C25.25 10.4959 21.4817 7.25 16.8333 7.25C12.1849 7.25 8.41663 10.4959 8.41663 14.5C8.41663 18.5041 12.1849 21.75 16.8333 21.75Z" stroke="#DFDCDC" stroke-width="4" stroke-linecap="round" stroke-linejoin="round"/>
</svg>
