<svg width="27" height="27" viewBox="0 0 27 27" fill="none" xmlns="http://www.w3.org/2000/svg">
<path d="M24.7501 19.035V22.41C24.7514 22.7233 24.6872 23.0334 24.5617 23.3205C24.4362 23.6076 24.2521 23.8653 24.0212 24.0771C23.7903 24.2889 23.5178 24.4502 23.221 24.5505C22.9241 24.6509 22.6097 24.6882 22.2976 24.66C18.8358 24.2838 15.5105 23.1009 12.5889 21.2063C9.87066 19.479 7.56611 17.1744 5.83886 14.4563C3.93758 11.5214 2.75438 8.17987 2.38511 4.7025C2.35699 4.3914 2.39397 4.07786 2.49367 3.78183C2.59337 3.4858 2.75363 3.21378 2.96422 2.98308C3.17481 2.75237 3.43114 2.56805 3.71687 2.44184C4.00261 2.31563 4.31149 2.2503 4.62386 2.25H7.99886C8.54483 2.24463 9.07412 2.43797 9.48809 2.79398C9.90206 3.14999 10.1724 3.64438 10.2489 4.185C10.3913 5.26508 10.6555 6.32557 11.0364 7.34625C11.1877 7.74892 11.2205 8.18653 11.1308 8.60724C11.041 9.02795 10.8326 9.41413 10.5301 9.72L9.10136 11.1488C10.7029 13.9652 13.0349 16.2973 15.8514 17.8988L17.2801 16.47C17.586 16.1675 17.9722 15.9591 18.3929 15.8694C18.8136 15.7796 19.2512 15.8124 19.6539 15.9638C20.6745 16.3446 21.735 16.6088 22.8151 16.7513C23.3616 16.8283 23.8607 17.1036 24.2175 17.5247C24.5742 17.9458 24.7638 18.4833 24.7501 19.035Z" stroke="#E51414" stroke-width="4" stroke-linecap="round" stroke-linejoin="round"/>
</svg>
