<svg width="1005" height="724" viewBox="0 0 1005 724" fill="none" xmlns="http://www.w3.org/2000/svg">
<g clip-path="url(#clip0_32_107)">
<path d="M519.384 582.386L518.078 581.444L516.47 579.996L514.56 577.245L514.058 576.738L513.656 576.521L513.053 576.304H512.148L511.244 576.666L506.822 579.996L498.38 584.92L495.666 586.947L494.661 588.178L491.948 595.49L490.34 596.142L486.521 597.01L485.214 597.083L484.31 596.866L484.109 596.214L484.41 595.852L484.511 595.707L484.913 594.983L484.812 594.549L483.606 593.97L474.661 590.856L472.953 589.988L471.948 589.626L469.134 589.191L467.727 588.395L466.32 587.888L463.808 591.436L463.205 592.015L459.586 593.39L457.979 594.187L457.074 594.549L455.265 594.983L454.461 595.49L451.949 598.82L451.245 600.341L450.14 602.513L449.235 602.947L443.306 604.974L439.486 605.843L437.678 605.988L425.316 605.916L422.1 606.422L420.794 606.495L417.477 606.06L415.266 606.278L412.352 606.64L409.035 604.106L408.03 603.599L407.628 603.02L407.226 601.354L406.824 600.775L406.121 600.413L405.317 600.268L404.412 599.762L403.608 598.893L402.302 594.621L401.397 593.173L399.086 591.074L398.081 590.567H397.176L394.764 590.856H393.759L393.056 590.567L391.95 590.205L390.141 589.988L386.423 590.422L383.106 590.494L382.704 590.205L382.403 588.902L381.9 587.743L381.498 587.309L380.895 586.947L379.488 586.802H377.679L372.554 587.598L370.544 588.033L345.62 593.318L339.389 594.042L338.786 593.825L334.866 584.485L335.57 582.603L336.072 582.965L336.374 583.037L336.776 583.182H337.178H337.379H337.68L337.982 583.11L338.484 582.965L338.886 582.82L340.896 581.517L341.6 581.227L341.901 581.082L342.102 580.865L342.404 580.648L342.705 577.897L343.107 576.956L344.816 573.842L345.318 571.164L345.62 570.44L346.524 569.064L348.333 567.761L352.755 566.24L353.76 566.964L354.363 567.399L355.067 567.833L355.569 568.123L356.373 568.268L358.986 568.774L360.092 569.281L360.996 569.933L362.303 571.236L363.006 571.743L363.911 571.96L364.715 571.815L365.619 571.308L366.222 570.729L366.825 570.005L367.629 568.268L367.428 566.747L368.232 564.575V564.068L368.132 563.272L367.73 561.752V561.1L368.132 560.014L368.936 558.856L370.845 556.684L371.549 555.525L372.453 554.512L373.056 553.715L373.76 553.643L374.765 553.064L375.267 552.919L376.172 552.846L376.674 552.629L377.076 552.412L377.679 552.195L378.483 552.122L380.393 552.195L381.9 551.905L384.815 550.819L388.433 550.312L391.548 549.226L392.855 549.444L393.86 548.72L394.865 548.285L399.086 547.489L399.689 547.344L400.392 547.054L402.804 545.896L404.714 544.665L404.01 543.869L403.608 543.507L395.468 538.222L391.548 533.443L388.935 528.592L389.438 523.307L389.136 521.642L388.433 521.352H387.729L386.825 521.425L385.418 521.932L384.714 522.004L383.91 521.932L383.006 521.714L382.001 521.57L380.996 521.642L380.192 521.932L379.388 522.511L378.986 523.38L378.182 526.276L377.277 527.724L374.865 529.461L373.559 529.027L373.056 528.592L372.855 527.868L372.554 527.434L371.951 527.289L371.147 527.796L370.644 528.23L370.343 528.52L369.338 529.172L368.031 529.606L364.815 531.778L363.71 532.14L362.705 532.357L359.489 531.995L358.584 531.561L357.881 531.126L357.077 530.692L356.273 530.402L355.67 530.33H354.866L354.263 530.258L353.459 529.968L351.951 529.027L351.147 528.882L350.243 529.027L349.338 529.172H348.434L347.73 528.954L347.429 528.665L347.228 528.448L347.127 528.086V527.506L347.429 526.638L347.931 525.624L351.047 522.004L354.564 519.398L355.067 518.818L355.368 518.239L355.67 517.226L355.77 516.574L355.67 515.778L355.368 514.981L354.464 514.185L352.655 514.402L350.042 515.271L346.122 517.008L345.419 516.864L344.816 516.502L345.318 513.461L346.022 512.375L346.725 511.94L349.941 510.71L352.655 509.117L354.263 507.741L355.871 505.207L361.7 505.931H362.805L364.112 505.714L374.966 501.949L375.77 501.587L376.574 501.08L376.976 500.574L377.277 500.139V499.994L377.478 499.85L377.679 499.632L378.282 499.198L379.086 499.053L380.192 499.343L381.197 499.777L384.513 502.094L385.619 502.311L387.227 502.456H389.136L390.041 502.166L390.845 501.732L391.749 500.212L391.95 499.705L393.558 496.592L394.362 494.637L394.664 493.261L394.865 492.537L395.367 491.741L396.573 490.655L397.88 489.931L399.99 489.207L401.598 488.845L401.297 488.121L400.995 487.686V486.962L401.096 486.528L401.598 484.863V484.501L401.397 483.27V482.546L401.598 482.112L401.9 481.677L402.905 481.026L403.508 480.808L404.111 480.664L404.613 480.591L405.015 480.519L405.317 480.446L405.719 480.084L407.729 477.695L407.93 477.623L409.136 477.333L409.437 477.188L409.638 476.899L409.94 476.247L410.141 475.885L410.241 475.523V475.234L409.136 474.22L410.141 473.206L410.342 472.989L410.744 472.627L411.045 472.12L411.749 470.528L411.849 469.586L411.749 467.487L411.548 466.835L411.447 466.618L410.643 465.604L410.543 465.387L410.442 464.953L410.241 464.301L410.844 463.432L411.849 462.491L412.452 461.55L411.849 460.826L413.558 460.102L414.261 459.595L414.864 458.582L415.467 458.364L416.171 458.292L416.774 458.002L417.176 457.568L418.683 455.396L419.789 455.034L419.99 454.672L419.688 453.876L418.985 453.803L418.08 453.948L417.276 453.731L416.774 453.007L416.874 452.428L417.176 451.921L417.276 451.197L417.176 450.4L416.874 449.966L416.472 449.749L416.171 449.387L416.07 448.735L415.97 447.649L415.668 447.07L416.774 446.491L417.276 445.55L417.176 444.681L416.171 444.319L416.975 443.74L418.181 443.088L419.487 442.581L420.291 442.509L421.598 442.871L423.206 442.581L425.919 441.568L443.909 438.672L445.215 438.237L445.818 437.875L447.627 437.224L451.446 434.69L454.561 433.242L456.069 432.3L457.577 431.576L459.185 431.432L460.793 431.504L462.3 431.359L462.803 431.142L463.104 430.852L463.707 430.635L464.712 430.49L465.717 430.273L466.823 429.187L467.426 428.97L468.129 429.115L468.33 429.332L468.732 429.477L469.335 429.404L469.436 429.187L469.235 428.391L469.335 428.174L470.139 427.956L472.25 427.812L472.752 428.318L473.154 428.68L475.767 430.708L477.576 431.649L479.385 432.373L480.491 432.662L481.797 432.88L483.807 433.024L485.616 432.952L486.521 432.807L487.425 432.662L488.33 432.3L490.139 431.504L491.445 431.07L493.154 430.852H496.068L497.676 431.07L498.983 431.432L509.133 436.789L509.937 437.368L510.44 437.948L510.842 438.599L511.043 439.178L511.244 439.613L511.545 439.975L512.952 441.061L513.555 441.568L513.756 442.002L515.665 442.509L523.907 442.654H544.208L544.007 443.378L543.805 444.319L544.107 445.55L544.208 446.129L543.605 448.011L543.705 448.301L543.906 448.808L544.409 449.459L546.519 451.197L548.429 453.296L549.032 454.165L550.137 456.772L550.539 457.351L551.142 458.002L553.152 459.668L553.454 460.03L553.755 460.464L553.956 461.333L555.162 463.432L556.77 465.387L557.474 466.69L558.78 468.066L558.981 468.935L558.579 470.455L555.162 476.537L551.444 481.17L550.84 481.677L549.835 482.039L548.529 482.184L543.605 482.112L539.585 482.836L540.389 483.849L545.715 486.818L554.66 493.551L555.665 494.637L557.172 496.592L557.675 497.75L557.775 498.619L557.373 499.922L557.172 500.212L557.072 500.718L557.273 501.298L558.278 501.732L562.298 502.818L563.303 502.963L564.207 503.108H566.016L567.021 503.47L568.227 504.411L571.141 508.538L572.247 510.71L570.137 523.524L569.333 524.393L568.73 524.683L567.825 524.755L566.116 524.321L565.112 524.248L564.308 524.321L562.499 524.755L561.494 524.972L560.589 524.9L558.68 524.538L557.775 524.466L555.665 524.61H554.559L553.655 524.538L553.051 524.466L552.348 524.248L551.745 524.104H551.142L550.338 524.176L549.434 524.466L545.715 526.058L544.71 526.855L543.705 528.013L542.499 530.33L541.193 534.167L540.188 535.615L537.575 537.136L538.479 539.09L538.58 539.67V540.394L537.976 542.71L535.163 549.299V550.24L536.067 551.326L536.972 552.267L537.273 552.774V553.353L536.972 554.005L536.369 554.512L534.861 555.091L533.957 555.236L532.851 555.598L532.248 555.815L531.745 556.104L530.138 557.19L529.535 557.842L529.434 558.059L529.334 558.132L527.625 559.145L527.324 559.29L527.123 559.58L527.022 559.652L526.922 559.724L526.72 559.797L526.319 559.869H524.51L519.786 561.245L519.183 561.317L518.68 561.534L518.279 561.824L517.876 562.403L517.173 563.127L515.766 563.634H515.264L515.063 563.779L514.56 564.068L514.158 564.648V565.299L514.259 566.096L515.364 567.616L516.972 568.774L521.695 570.222L522.399 570.657L522.7 571.381L522.5 572.394L522.7 575.725L522.5 577.173L521.695 578.91L519.384 582.386Z" fill="#002DE9" stroke="white" stroke-width="0.5625" stroke-linejoin="round"/>
<path d="M731.339 369.964L729.53 371.05L728.022 373.729L726.916 375.104L726.515 375.684L726.414 376.263L726.816 379.593L726.615 380.172L725.911 380.752L724.102 381.403L723.399 381.693L722.595 382.634L721.992 383.72L720.685 387.268L718.173 392.263L716.465 394.652L715.158 397.259L714.555 398.128L713.55 398.707L708.826 400.372L707.52 401.024L706.415 401.892L705.61 403.268L696.565 418.11L694.555 420.065L694.355 420.716L694.656 422.092L694.756 422.744L694.555 423.323L693.751 424.409L690.736 427.16L689.53 427.884L678.275 431.794H674.958L674.255 432.662L673.049 433.748L670.737 435.414L669.631 435.631L667.722 436.934L666.717 437.586L666.817 437.803V438.165V438.092H666.616L665.009 437.513L663.601 436.21L662.898 436.065L662.195 436.138L661.591 436.572L661.29 436.862L660.888 437.368L660.385 437.803L659.38 438.092L655.26 438.237L647.823 439.613L643.602 439.975L637.17 440.699L635.763 440.482L631.844 439.468L630.436 439.396L629.331 439.54L621.09 441.857L613.754 442.509L582.599 442.654H544.207H523.906L515.665 442.509L513.756 442.002L513.555 441.568L512.952 441.061L511.545 439.975L511.244 439.613L511.042 439.178L510.841 438.599L510.439 437.948L509.937 437.368L509.133 436.789L498.982 431.432L497.676 431.07L496.068 430.852H493.154L491.445 431.07L490.139 431.504L488.329 432.3L487.425 432.662L486.52 432.807L485.616 432.952L483.807 433.024L481.797 432.88L480.49 432.662L479.385 432.373L477.576 431.649L475.767 430.708L473.154 428.68L472.752 428.318L472.249 427.812L470.139 427.956L469.335 428.174L469.234 428.391L469.435 429.187L469.335 429.404L468.732 429.477L468.33 429.332L468.129 429.115L467.425 428.97L466.822 429.187L465.717 430.273L464.712 430.49L463.707 430.635L463.104 430.852L462.802 431.142L462.3 431.359L460.792 431.504L459.184 431.432L457.576 431.576L456.069 432.3L454.561 433.242L451.446 434.69L447.627 437.224L445.818 437.875L445.215 438.237L443.909 438.672L425.919 441.568L423.205 442.581L421.597 442.871L420.291 442.509L419.487 442.581L418.18 443.088L418.582 441.93L419.889 439.613V438.599L419.386 437.296L418.08 434.907L417.678 433.604L417.577 432.59L417.678 431.287L417.879 430.635L418.683 429.332L418.784 428.68L418.582 428.101L417.376 427.522L416.271 427.088L409.939 426.002L410.744 424.626L411.547 422.164L411.648 420.572L411.145 417.603L413.457 417.458L413.859 417.531L414.764 417.965L415.366 418.038L415.869 417.82L416.673 417.314L416.974 417.169L417.879 417.241L419.587 417.531L420.391 417.603L422.401 417.241L424.411 416.517L425.919 415.504L426.421 414.2L426.924 411.811L428.13 409.856L430.24 408.626L433.356 408.408L435.466 407.54L437.376 405.657L439.687 401.82L440.19 400.227L440.391 398.707L439.989 397.693L438.28 396.245L437.677 395.376L438.18 393.856L439.587 392.408L444.511 389.15L449.034 387.05L449.335 386.761L449.637 386.037L449.939 385.747L450.34 385.675L451.144 385.747L452.049 385.602L453.255 385.53L453.757 385.385L454.26 384.951L454.36 384.444L454.662 383.865L455.767 383.358L459.184 381.114L460.089 380.752L461.194 380.534H461.999L462.702 380.824L463.405 380.969L464.209 380.679L464.913 379.376L463.908 378L460.792 375.539L456.873 371.412L455.767 370.76L453.858 370.471L453.456 370.109L454.059 369.602L455.466 368.878L457.074 367.792L461.999 362.507L466.621 359.176L471.646 355.701L473.757 353.384L474.963 352.805L475.968 352.154L476.269 350.995L475.164 347.592L474.963 346.362L475.264 345.131L475.767 343.9L478.681 340.208L486.52 332.316L489.535 329.999L489.937 329.203L489.736 328.262L489.234 326.814L488.731 324.569V322.397L489.234 320.949L492.45 317.619L492.751 316.895L493.756 317.546L497.073 320.877L512.148 330.796L514.057 331.447L515.766 331.882L517.776 332.099L520.791 332.171L521.796 332.244L523.102 332.533L523.806 333.112L525.414 334.995L525.715 335.646L525.615 336.226L525.112 336.805L524.61 337.239L524.409 337.891L524.61 339.194L524.71 340.932L525.314 341.873L526.017 342.452L527.022 342.886L528.931 343.393L529.936 343.61L530.74 343.683L532.75 344.334L534.057 345.276L540.489 346.579L553.152 347.954L554.257 348.172L561.091 350.778L562.297 350.995L563.403 351.068L565.111 350.778L567.021 350.416L569.232 350.199L573.352 350.344L573.955 349.692L574.156 347.375L574.357 346.651L574.559 346.144L575.362 345.565L575.965 344.914L576.77 344.552L582.397 345.42L584.508 346.579L585.312 347.303L586.619 348.172L588.025 348.678L589.734 349.258L593.955 351.212L594.96 351.357L595.764 351.14L596.769 350.344L597.573 349.909L600.387 349.185L601.291 348.896L603.201 348.027L604.306 347.737L605.714 347.52H606.819L608.829 348.027L609.734 348.099L610.638 348.027L619.683 346.579L621.492 346.434L622.497 346.579L623.401 347.303L623.502 349.837L624.105 350.344L625.01 350.85L627.02 351.212L640.788 352.298L641.592 352.516L642.195 353.022L642.798 355.05L643.1 355.701L643.602 356.208L644.004 356.57L647.32 358.38L648.125 358.959L648.627 359.466L648.828 360.407L650.335 362.29L654.556 365.548L655.964 366.344L656.868 366.706L658.074 367.43L659.28 369.24L659.581 372.426L659.38 373.15L659.18 373.874L659.28 374.815L659.883 375.322L660.787 375.684L661.792 375.828H663.702L669.43 375.466L670.536 375.539L671.541 375.828L672.847 376.408L673.752 377.132L674.455 378L674.958 378.797L676.867 380.824L681.792 381.548L682.998 382.851L683.601 383.141L684.606 383.648L685.611 383.865H686.515L687.42 383.792L688.325 383.648L689.33 383.358L690.234 382.996L696.164 380.39L712.645 375.177L713.851 374.887L715.158 374.742H716.364L718.173 374.598L719.379 374.308L720.485 373.801L725.409 370.688L727.218 369.964L728.424 369.602L729.53 369.53L730.434 369.674L731.037 369.819L731.238 369.964H731.339Z" fill="#88A4BC" stroke="white" stroke-width="0.5625" stroke-linejoin="round"/>
<path d="M605.915 662.388L605.814 662.243L603.302 623.147L602.598 619.672L601.694 619.889L600.689 620.106L599.784 620.468L596.769 622.278L595.563 622.568L595.463 622.93L596.267 623.871L595.262 623.654L594.156 623.292L593.352 623.219L593.051 624.016L593.553 625.608L593.352 626.26L592.247 626.55H587.624L586.719 626.332L583.805 625.029L583.604 624.74L583.001 624.305L582.498 624.16L582.197 624.812L581.995 625.029H581.393H580.287L579.584 624.74L578.076 623.436L577.373 623.219L576.569 622.785L575.765 622.712L575.061 623.436L575.162 623.871L576.167 625.608L576.669 626.188H575.664L574.76 626.115L574.257 625.753L573.755 624.378L573.252 623.943L571.343 623.436L571.443 622.568L570.639 621.844L569.534 621.626L568.629 622.278L567.925 622.061L567.524 621.988L567.122 622.061L566.418 622.278L565.514 621.771L564.207 621.626L563.102 621.844L562.599 622.495L562.398 622.93L561.795 623.074L561.293 622.93L560.79 621.916H560.288L559.785 622.278L559.383 622.712L558.278 622.35L554.76 621.626L553.755 621.699L553.253 621.626L551.845 620.613L551.243 620.323L551.142 620.468L549.635 621.482L548.529 620.975L547.424 620.758L544.81 620.685L543.705 620.468L542.298 620.034L540.389 619.816L540.087 619.672L539.886 619.454L539.283 619.165L537.775 618.73L537.374 618.513L535.062 616.124L534.76 615.4L534.56 608.956L533.755 606.133L532.55 603.599L529.635 599.906L527.525 598.096L521.997 594.332L519.485 591.942L518.58 590.856L518.178 590.205L518.078 589.77L517.977 589.264L519.384 582.386L521.695 578.91L522.5 577.173L522.7 575.725L522.5 572.394L522.7 571.381L522.399 570.657L521.695 570.222L516.972 568.774L515.364 567.616L514.259 566.096L514.158 565.299V564.648L514.56 564.068L515.063 563.779L515.264 563.634H515.766L517.173 563.127L517.877 562.403L518.279 561.824L518.68 561.534L519.183 561.317L519.786 561.245L524.51 559.869H526.319L526.72 559.797L526.922 559.724L527.022 559.652L527.123 559.58L527.324 559.29L527.625 559.145L529.334 558.132L529.434 558.059L529.535 557.842L530.138 557.19L531.745 556.104L532.248 555.815L532.851 555.598L533.957 555.236L534.861 555.091L536.369 554.512L536.972 554.005L537.273 553.353V552.774L536.972 552.267L536.067 551.326L535.163 550.24V549.299L537.977 542.71L538.58 540.394V539.67L538.479 539.09L537.575 537.136L540.188 535.615L541.193 534.167L542.499 530.33L543.705 528.013L544.71 526.855L545.715 526.058L549.434 524.466L550.338 524.176L551.142 524.104H551.745L552.348 524.248L553.052 524.466L553.655 524.538L554.559 524.61H555.665L557.775 524.466L558.68 524.538L560.589 524.9L561.494 524.972L562.499 524.755L564.308 524.321L565.112 524.248L566.117 524.321L567.825 524.755L568.73 524.683L569.333 524.393L570.137 523.524L572.247 510.71L571.142 508.538L568.227 504.411L567.021 503.47L566.016 503.108H564.207L563.303 502.963L562.298 502.818L558.278 501.732L557.273 501.298L557.072 500.718L557.172 500.212L557.373 499.922L557.775 498.619L557.675 497.75L557.172 496.592L555.665 494.637L554.66 493.551L545.715 486.818L540.389 483.849L539.585 482.836L543.605 482.112L548.529 482.184L549.835 482.039L550.84 481.677L551.444 481.17L555.162 476.537L558.579 470.455L558.981 468.935L558.78 468.066L557.474 466.69L556.77 465.387L555.162 463.432L553.956 461.333L553.755 460.464L553.454 460.03L553.152 459.668L551.142 458.002L550.539 457.351L550.137 456.772L549.032 454.165L548.429 453.296L546.519 451.197L544.409 449.459L543.906 448.808L543.705 448.301L543.605 448.011L544.208 446.129L544.107 445.55L543.805 444.319L544.007 443.378L544.208 442.654H582.599L613.754 442.509L621.09 441.857L629.331 439.54L630.437 439.396L631.844 439.468L635.763 440.482L637.17 440.699L643.602 439.975L647.823 439.613L655.26 438.237L659.381 438.092L660.386 437.803L660.888 437.368L661.29 436.862L661.592 436.572L662.195 436.138L662.898 436.065L663.602 436.21L665.009 437.513L666.617 438.092H666.818V438.165L666.918 438.454L666.617 438.961L666.315 439.251L666.014 439.758L665.712 439.975H665.31L664.506 439.54H664.104L663.501 440.047L663.3 440.409L663.401 440.916L664.104 441.568L664.707 442.002L665.712 442.798L666.818 443.522L668.024 444.391L668.526 445.332L668.928 446.346L669.431 447.215L670.737 447.866H672.144L674.657 448.084L675.762 447.939L677.973 446.998L678.878 447.07L679.983 448.228L680.385 449.387L681.491 450.4L681.993 456.554L682.596 457.713L681.993 458.509L680.988 461.622L679.581 464.229L679.28 465.098L679.481 466.111L679.883 466.908L680.988 468.283L681.491 469.152L681.591 469.876L681.491 471.614L681.189 472.193L680.084 473.786L679.782 474.727L679.883 476.392L679.581 477.044L678.476 477.333V477.768L677.772 478.709L676.968 479.578L676.667 479.867L676.466 480.591L676.064 481.605L675.36 482.546L674.456 483.198L673.752 483.342L674.054 483.922L675.36 484.935L676.968 485.732L680.385 486.528L681.993 487.107L683.3 488.048L684.204 489.207L684.807 490.51L685.109 491.813V494.709L685.41 496.954L684.908 499.053V499.27L684.807 500.139L685.109 500.791L685.611 501.298L686.013 501.804L685.812 503.325L686.114 503.904L686.616 504.483L687.018 505.207L688.124 510.565L688.023 511.144L687.722 512.592L687.42 513.171L687.32 513.606L687.822 514.547L688.325 518.891L689.43 521.57L691.44 524.031L694.355 525.986L706.917 532.212L710.334 533.154L711.339 533.516L711.842 534.095L712.344 535.543L712.847 536.339L715.661 538.801L716.867 540.394L717.57 541.986L718.374 545.389L718.475 548.647L718.977 550.168L719.882 550.747L721.088 550.602L722.294 550.964L722.796 551.76L723.098 552.557L723.5 552.919H724.605L725.811 553.064L726.816 553.57L727.017 554.15L725.409 554.656L723.701 554.946L720.585 556.032L719.078 556.249L717.771 556.104L715.158 555.67H713.852L718.475 563.706L725.309 570.946L731.741 575.87L732.545 576.449L737.871 580.576L744.504 585.644L752.745 591.942L760.584 597.952L768.021 603.599L773.951 608.16L774.554 608.377L775.157 608.522L776.162 608.667L776.463 608.594L777.368 608.232L777.77 608.088L778.272 608.16L779.177 608.594L779.478 608.667L782.795 608.377L784.101 608.739L785.709 609.608L787.016 610.839L787.619 611.925L788.724 614.821L788.925 615.11L789.126 615.4L789.528 615.617L790.533 615.328L791.438 615.183L792.141 615.255L793.046 615.472L793.649 615.979L795.357 617.717L796.463 619.599L797.468 620.83L798.272 622.133L798.473 623.654L797.769 624.957L795.659 626.477L795.357 627.998L795.659 629.952V630.749L795.86 631.256H796.664L797.769 631.111L798.774 631.183L799.679 631.328L798.975 632.124L798.372 632.993L798.071 633.572L798.272 634.803L799.478 636.758L799.779 637.916L799.377 639.002L798.171 640.957L798.071 642.26L798.372 642.984L799.377 644.288L799.779 645.374V647.473L799.88 647.98L800.483 649.138L801.488 650.586L802.995 651.817L803.498 652.396L803.799 652.903L804 653.41L804.101 654.568L804.302 654.858L805.407 655.365L805.709 655.51V656.016L805.307 656.74L805.206 657.32L806.211 657.682L806.513 657.899L806.915 658.116L807.417 658.623L806.714 659.274L803.498 661.012L802.091 659.998L800.483 659.781L799.176 660.36L798.674 661.591L797.769 662.894L797.568 663.546L797.669 664.27L798.071 664.777L798.272 665.284L798.071 666.08L797.87 666.152H797.568L797.267 666.225L796.965 666.442L796.865 666.804V667.094L796.965 667.238L797.066 667.745L797.367 668.18V668.686L796.161 669.917L795.96 670.496L796.061 672.596L796.362 672.886L796.865 673.03L797.568 673.465L798.975 675.202L801.588 680.198L803.498 686.497L803.297 687.438L802.392 687.655L800.684 687.293L799.98 687.438L796.463 691.058L793.347 688.162L792.644 687.221V686.642L792.945 686.062L793.046 685.483L792.644 684.832L792.041 684.397L791.136 684.18H790.232L789.428 684.47L788.021 684.108L786.513 683.818L785.307 683.456L785.106 682.515L784.202 682.877L783.197 683.166H782.192L781.79 682.732L781.589 681.863L781.086 681.429L780.282 681.139L778.473 680.27L776.363 679.764L775.358 679.402L772.343 676.578L771.74 676.361L769.83 676.144L768.926 675.854L768.021 675.492L767.72 675.275L760.182 674.623L753.449 673.248L750.032 672.741L746.514 673.103L742.494 674.84L740.886 675.202L739.379 675.782L738.474 675.854V675.709L736.665 675.13L736.263 675.058L735.66 674.623L735.56 674.334L735.66 674.044L735.761 673.32L735.56 672.886L735.158 672.451L734.555 672.089L731.841 671.365L731.439 671.22L731.138 670.786L730.635 669.917L730.233 669.628L728.625 669.121L727.319 669.41L726.314 669.7L723.801 669.048L722.696 670.714L721.59 670.424H721.088L720.284 671.365L718.977 672.234L717.671 672.524L716.766 671.51L715.259 671.872L714.053 671.655L710.234 669.483L709.43 669.41L708.827 670.786L708.123 671.076L706.415 671.22L703.299 671.003L703.601 669.628L704.405 668.035L702.897 667.238L702.596 666.732L701.591 665.573L700.485 664.777L699.882 665.139V665.79L699.782 666.514L699.179 667.021L697.973 667.238L693.149 667.673L692.948 667.383V666.08L692.847 665.718H692.445L691.742 665.863H690.938L690.134 665.718L690.636 665.573L691.842 664.922L689.631 664.125L689.129 664.27L689.631 665.718L688.425 665.356L686.918 664.198L685.812 663.691L683.802 663.763L682.998 663.474L683.702 662.605L681.792 661.953L679.179 659.854L677.069 659.492L676.667 659.854L675.963 660.36V660.867L676.164 661.374L675.963 661.881L675.159 662.026L668.928 663.039L667.32 663.763L666.918 663.836L665.712 663.691L664.205 662.677L662.999 662.098L657.974 661.664L654.456 662.605L653.753 662.677L645.411 662.605L632.849 662.532L618.678 662.46L605.915 662.388Z" fill="#002DE9" stroke="white" stroke-width="0.5625" stroke-linejoin="round"/>
<path d="M310.344 598.965H310.445L311.751 598.531L312.254 598.241L312.756 597.952L313.46 597.228L314.264 596.648L315.068 596.142L317.178 595.273L317.681 594.983L317.982 594.694L319.791 592.232L319.891 592.087L319.992 591.942V591.653L319.891 591.074V590.784L320.093 590.639L320.796 590.06L320.997 589.843L321.198 589.626V589.481V589.264L320.796 588.467V587.743V586.585L321.098 585.644L321.299 585.426L321.6 585.282L322.906 584.413L323.51 583.978L324.615 582.748L324.916 582.386L325.218 582.024L325.62 581.589L326.123 581.227L326.324 581.155L326.625 581.01L327.228 580.865L327.63 580.793L329.439 580.576L329.841 580.503L330.042 580.431L330.243 580.358L330.746 579.924L330.846 579.852L331.047 579.779L332.153 580.141L333.66 580.793L334.966 581.517L335.57 582.603L334.866 584.485L338.786 593.825L339.389 594.042L345.62 593.318L370.544 588.033L372.554 587.598L377.679 586.802H379.488L380.895 586.947L381.498 587.309L381.9 587.743L382.403 588.902L382.704 590.205L383.106 590.494L386.423 590.422L390.141 589.988L391.95 590.205L393.056 590.567L393.759 590.856H394.764L397.176 590.567H398.081L399.086 591.074L401.397 593.173L402.301 594.621L403.608 598.893L404.412 599.762L405.316 600.268L406.121 600.413L406.824 600.775L407.226 601.354L407.628 603.02L408.03 603.599L409.035 604.106L412.351 606.64L415.266 606.278L417.477 606.06L420.794 606.495L422.1 606.422L425.316 605.916L437.678 605.988L439.486 605.843L443.306 604.974L449.235 602.947L450.14 602.513L451.245 600.341L451.949 598.82L454.461 595.49L455.265 594.983L457.074 594.549L457.979 594.187L459.586 593.39L463.205 592.015L463.808 591.436L466.32 587.888L467.727 588.395L469.134 589.191L471.948 589.626L472.953 589.988L474.661 590.856L483.606 593.97L484.812 594.549L484.913 594.983L484.511 595.707L484.41 595.852L484.109 596.214L484.31 596.866L485.214 597.083L486.521 597.01L490.34 596.142L491.948 595.49L494.661 588.178L495.666 586.947L498.38 584.92L506.821 579.996L511.244 576.666L512.148 576.304H513.053L513.656 576.521L514.058 576.738L514.56 577.245L516.47 579.996L518.078 581.444L519.384 582.386L517.977 589.264L518.078 589.77L518.178 590.205L518.58 590.856L519.485 591.942L521.997 594.332L527.525 598.096L529.635 599.906L532.55 603.599L533.755 606.133L534.56 608.956L534.76 615.4L535.062 616.124L537.374 618.513L537.775 618.73L539.283 619.165L539.886 619.454L540.087 619.672L540.389 619.816L542.298 620.034L543.705 620.468L544.81 620.685L547.424 620.758L548.529 620.975L549.635 621.482L551.142 620.468L551.243 620.323L551.845 620.613L553.253 621.626L553.755 621.699L554.76 621.626L558.278 622.35L559.383 622.712L559.785 622.278L560.288 621.916H560.79L561.293 622.93L561.795 623.074L562.398 622.93L562.599 622.495L563.101 621.844L564.207 621.626L565.514 621.771L566.418 622.278L567.121 622.061L567.524 621.988L567.925 622.061L568.629 622.278L569.534 621.626L570.639 621.844L571.443 622.568L571.343 623.436L573.252 623.943L573.755 624.378L574.257 625.753L574.76 626.115L575.664 626.188H576.669L576.166 625.608L575.161 623.871L575.061 623.436L575.765 622.712L576.569 622.785L577.373 623.219L578.076 623.436L579.584 624.74L580.287 625.029H581.393H581.995L582.196 624.812L582.498 624.16L583 624.305L583.604 624.74L583.805 625.029L586.719 626.332L587.624 626.55H592.246L593.352 626.26L593.553 625.608L593.05 624.016L593.352 623.219L594.156 623.292L595.261 623.654L596.266 623.871L595.463 622.93L595.563 622.568L596.769 622.278L599.784 620.468L600.689 620.106L601.694 619.889L602.598 619.672L603.301 623.147L605.814 662.243L605.915 662.388H602.598L590.337 662.243L576.77 662.17V660.795L577.071 659.057L576.77 658.261L575.965 657.537L574.76 656.813L573.554 656.161L572.649 655.872L572.146 655.944L571.041 656.306H570.237L569.735 656.161L568.629 655.51L566.418 655.22L564.006 655.148L563.303 655.365L562.398 655.799L560.79 656.885L560.086 657.175L556.67 657.464L554.459 656.74L553.253 656.523L552.147 656.885L551.243 657.102L549.835 656.958L547.524 656.306L546.72 656.885L545.815 657.102L544.81 657.03L543.705 656.74L543.001 657.392L541.394 657.175L539.585 656.596L538.278 656.306L537.273 656.596L536.369 657.175L535.263 657.682L533.655 657.899L522.901 656.74L521.093 656.234L519.786 655.51L517.977 655.872L516.57 655.51L512.148 654.496L509.133 654.351L504.711 655.075L503.304 654.858L500.691 653.7L499.786 653.482L498.983 653.555L497.375 654.134L496.47 654.351L494.963 654.496L491.948 655.22L490.34 655.437L486.923 655.292L483.706 654.93H482.3L477.576 655.148L471.646 654.93L465.516 655.292L458.581 655.148L455.969 655.365L454.763 655.292L450.642 654.351L449.034 653.41L448.23 653.048L447.125 652.976L446.12 653.12L444.11 653.7L423.005 654.206L422.804 654.713L423.206 655.51L423.306 656.234L422.804 657.03L422.201 657.682L421.698 658.333L421.598 659.202V659.926L421.396 660.65L421.095 661.302L420.593 661.953H396.975H373.257H349.539H348.434H331.047H325.921H315.269L313.661 661.736L308.636 659.926L307.229 659.709L305.821 659.347L303.811 658.333L302.003 657.175L300.998 656.234L300.796 655.075L301.098 653.917L300.998 652.831L300.093 651.89L301.098 651.238V650.876L301.701 649.862L301.902 639.22L304.314 631.618L305.721 629.228L306.023 628.287L306.324 621.047L307.128 618.441L308.334 616.124L309.841 614.459L311.45 613.011L312.455 611.418L312.656 609.608L309.641 601.282L308.234 599.906V599.544H308.937L309.44 599.472L310.344 599.182V598.965Z" fill="#88A4BC" stroke="white" stroke-width="0.5625" stroke-linejoin="round"/>
<path d="M731.339 369.964H731.238L731.037 369.819L730.434 369.674L729.53 369.53L728.424 369.602L727.218 369.964L725.409 370.688L720.485 373.801L719.379 374.308L718.173 374.598L716.364 374.742H715.158L713.852 374.887L712.645 375.177L696.164 380.39L690.234 382.996L689.33 383.358L688.325 383.648L687.42 383.792L686.515 383.865H685.611L684.606 383.648L683.601 383.141L682.998 382.851L681.792 381.548L676.868 380.824L674.958 378.797L674.455 378L673.752 377.132L672.848 376.408L671.541 375.828L670.536 375.539L669.43 375.466L663.702 375.828H661.793L660.788 375.684L659.883 375.322L659.28 374.815L659.18 373.874L659.38 373.15L659.582 372.426L659.28 369.24L658.074 367.43L656.868 366.706L655.964 366.344L654.557 365.548L650.335 362.29L648.828 360.407L648.627 359.466L648.125 358.959L647.32 358.38L644.004 356.57L643.602 356.208L643.1 355.701L642.798 355.05L642.195 353.022L641.592 352.516L640.788 352.298L627.02 351.212L625.01 350.85L624.105 350.344L623.502 349.837L623.402 347.303L622.497 346.579L621.492 346.434L619.683 346.579L610.638 348.027L609.734 348.099L608.829 348.027L606.819 347.52H605.714L604.307 347.737L603.201 348.027L601.292 348.896L600.387 349.185L597.573 349.909L596.769 350.344L595.764 351.14L594.96 351.357L593.955 351.212L589.734 349.258L588.025 348.678L586.619 348.172L585.312 347.303L584.508 346.579L582.398 345.42L576.77 344.552L575.965 344.914L575.363 345.565L574.559 346.144L574.358 346.651L574.157 347.375L573.955 349.692L573.353 350.344L569.232 350.199L567.021 350.416L565.112 350.778L563.403 351.068L562.298 350.995L561.092 350.778L554.258 348.172L553.152 347.954L540.489 346.579L534.057 345.276L532.75 344.334L530.74 343.683L529.937 343.61L528.932 343.393L527.022 342.886L526.017 342.452L525.314 341.873L524.71 340.932L524.61 339.194L524.409 337.891L524.61 337.239L525.113 336.805L525.615 336.226L525.715 335.646L525.414 334.995L523.806 333.112L523.103 332.533L521.796 332.244L520.791 332.171L517.776 332.099L515.766 331.882L514.058 331.447L512.148 330.796L497.073 320.877L493.757 317.546L492.752 316.895L493.053 316.388V315.23L491.847 310.596L491.646 307.99L492.249 305.528L494.058 303.646L495.767 303.066L498.882 303.501L500.49 303.284L501.495 302.849L502.098 302.125L502.601 301.474L503.204 300.894L505.616 299.664L506.219 299.157V297.564L506.018 296.695L504.108 293.437L503.505 292.641L505.616 293.148L506.822 293.292L507.927 293.148L509.133 292.786L510.038 292.351L511.043 291.917L512.45 291.844L513.555 292.062L516.068 292.858L517.274 293.075L518.48 292.858L526.52 289.745L527.927 288.659L529.133 286.776L529.836 285.111L530.439 284.46L531.344 284.17H532.449L533.454 284.315H534.459L535.464 284.025L537.173 282.288L538.077 279.826L539.886 268.966L539.283 266.866L539.384 264.477L540.992 261.726L544.61 257.02L545.112 256.006L545.414 254.92L545.514 252.676L544.81 250.938L544.107 249.708L541.795 249.49L541.494 249.273L541.997 248.26L542.499 247.97L547.223 246.377L547.825 246.015L548.73 245.436L551.042 243.264L552.047 242.685L557.574 240.947L563.805 240.223L568.93 238.775L571.142 234.648L571.544 230.884L572.549 226.974L573.353 225.598L574.056 224.657L574.257 223.716L573.353 222.413L571.142 220.748L570.338 219.806L570.137 218.503L570.74 217.272L572.649 215.173L572.95 213.797L572.649 212.711L571.745 210.829L571.644 209.67L573.051 207.643L575.765 206.919L581.895 206.412L583.403 205.978L584.508 205.471L584.81 205.906L586.418 207.788L587.121 208.295L588.025 208.584H589.03L592.85 207.716L595.764 207.788L597.372 207.933L598.578 207.643L600.387 206.992L605.412 205.833L606.417 205.399L606.819 204.82L606.417 204.168L605.211 202.937L604.91 202.286V201.634L605.312 200.982L606.015 200.258L607.322 199.462L608.528 199.245L609.633 199.172L614.658 199.896L617.774 200.114L620.99 199.896L622.598 199.969L626.919 200.548L629.432 201.2L630.537 201.706L632.547 203.806L632.849 204.023L635.361 205.326L636.969 206.919L639.381 207.281H640.587L647.924 208.874L648.728 209.815L648.024 213.29L648.125 213.435V213.508H647.019L646.315 213.725L646.115 214.159V214.738L645.914 215.318L642.095 220.82L639.582 223.282L633.15 227.336L628.326 232.404L628.427 233.2L635.462 237.255L658.074 256.079L658.778 258.54L660.285 260.35L671.943 267.156L674.054 268.387L677.873 270.631L682.697 273.382L695.46 280.84L696.164 280.984L696.767 281.129H696.867L697.47 280.984L698.174 280.84L698.877 280.912L699.58 280.984L700.184 281.202L700.686 281.419L703.802 283.084L704.505 283.663L704.807 284.098V284.242L704.907 284.387L705.41 284.677L706.013 284.822L706.615 285.184L707.018 285.69L707.721 287.138L707.922 287.862V288.369L708.224 288.804L709.329 289.021L712.244 289.31L714.254 289.817L715.862 290.614L717.168 291.772L720.585 295.754L725.108 299.012L726.314 300.17L728.424 303.428L739.077 319.936L744.002 332.244L746.615 337.022L750.434 338.977L751.74 339.049H752.142L754.554 339.411L756.363 339.701V340.352L756.263 345.565L755.258 348.968L753.047 352.154L749.83 355.194L749.228 355.991L745.007 360.19L744.705 361.059L746.213 362.145L746.012 362.869L745.71 362.941L744.203 363.014L743.7 363.086L743.198 363.376L742.595 364.317L742.293 364.679L738.575 366.778L732.444 369.24L731.339 369.964Z" fill="#88A4BC" stroke="white" stroke-width="0.5625" stroke-linejoin="round"/>
<path d="M291.752 412.028L292.958 412.752L294.867 414.997L295.973 417.386L296.777 418.472L300.596 427.45L300.194 430.346L299.691 431.576L299.792 433.386L299.289 434.4L298.787 435.052L297.983 435.269L297.078 435.124L296.274 434.907L294.666 435.269L292.757 436.934L285.018 440.409L284.013 441.35L283.611 442.074L283.913 442.509L284.013 442.581V442.654L284.114 442.726L284.214 442.798L284.817 443.16L285.621 443.957L284.716 446.853L285.018 447.649L285.721 448.156L286.526 448.373L287.33 448.735L288.234 449.387L290.244 451.342L292.053 451.704L294.063 451.414L294.867 451.631L295.37 451.993L295.973 453.007L296.676 453.658L297.681 454.382L299.993 455.251L304.716 456.265L309.641 457.93L314.063 456.265L317.078 456.989L321.098 457.64L323.51 458.22L324.917 460.464L324.816 460.898L324.515 461.55L320.997 462.491L314.766 466.401L313.46 467.487L312.756 468.428L312.455 470.962L312.053 471.903L308.736 477.84L305.721 479.505L303.008 479.94L300.194 482.329L299.289 482.763L298.385 482.836H297.48L296.877 482.98L296.475 483.415L296.576 483.994L297.179 486.166L298.485 488.483L301.5 491.089L302.606 492.465L304.113 494.926L304.314 495.94L303.51 496.664L300.797 497.026L299.39 498.257L298.385 499.994L297.782 501.37L297.48 502.239L298.083 502.963L299.792 504.338L299.691 504.99L299.189 505.569L298.385 506.076L296.877 507.452L294.365 509.189L293.561 510.058L293.159 510.999L293.058 511.578V513.099L292.254 514.474L290.144 515.633L287.933 517.95L287.33 519.904L286.827 520.411L286.023 520.628H285.42L284.415 520.411L282.506 520.484L281.903 520.846L280.696 522.149L278.184 525.334L277.581 526.927L277.28 530.258L277.38 531.054L278.084 532.647L277.681 533.878L272.255 540.176L271.752 541.769L271.551 543.217L273.26 543.941L278.787 544.665L279.993 545.172L280.596 545.824L281.199 547.127L281.3 547.706L280.797 548.14L279.792 548.864L279.29 549.371L278.385 550.53L277.681 550.964L277.179 551.181L276.576 551.326L275.571 550.53L274.666 550.819L272.456 552.557L272.656 552.774L272.456 552.991L269.24 556.756L268.436 558.132L268.235 558.711L268.134 559L267.833 559.145L267.129 559.29L265.621 559.869L263.109 561.607H263.009L261.601 561.1L260.798 559.145L261.2 557.046L262.606 555.67V555.308L260.697 555.67L259.793 556.611L259.29 557.625L256.577 559.435L254.265 559.073L253.461 559.218L253.562 558.132L253.662 557.335L253.461 556.684L252.356 556.104L251.451 555.96H249.944L248.537 556.104L247.833 556.249L246.527 556.177L242.406 554.222L235.472 551.905L234.567 551.398L234.366 549.806L235.874 546.33L236.074 544.738L233.663 543.072L231.753 541.19L230.346 538.946L228.437 530.837L228.939 529.389L230.949 526.855L231.753 525.552L229.944 526.927L228.939 527.362L228.437 526.493L228.638 525.841L229.039 525.117L229.241 524.393L229.039 523.597L228.437 523.162L226.628 522.728L226.024 521.787L225.422 521.135L224.718 520.556L224.115 520.411L223.814 521.135L226.226 523.814L226.829 525.117L226.326 525.986L225.623 526.203L225.019 525.841L224.718 524.972L220.899 522.8L220.799 523.524L220.899 524.104L221.301 524.538L222.004 524.755L220.899 526.131L220.598 526.348L220.095 526.203L218.487 525.552L218.186 525.334L217.583 524.828L216.276 524.466L214.969 523.959L214.367 522.945L213.563 520.846L209.944 517.226L209.543 514.909L208.236 516.357L208.738 518.022L209.944 519.76L211.954 525.045L212.658 525.552L213.563 525.841L214.367 526.348L214.869 527.796L213.161 528.52L203.312 529.027L202.407 528.737L202.809 528.013L203.814 527.217L204.618 526.71L203.713 526.348H202.809L202.206 526.638L201.703 527.868L201.101 528.158L200.196 528.086L199.292 527.868L198.086 527L197.583 525.624L197.985 524.61L199.292 524.755L199.693 524.031L201.302 522.004L200.297 522.583H199.292L198.488 522.076L198.086 521.208L198.287 520.411L198.889 519.615L200.297 518.456L202.608 517.37L203.01 516.864V516.212L202.708 515.488L202.608 514.836L203.01 514.112L203.613 514.547L203.312 512.302L203.412 511.144L204.317 510.637L204.718 510.565L206.126 509.551L205.824 508.755L205.523 507.958L205.322 506.728L206.025 505.859L208.136 504.7L208.638 503.687L211.754 500.139L212.959 498.908L213.663 497.822L214.869 495.288L215.372 494.564L216.879 492.827L217.683 492.248L218.588 491.958L219.492 491.813L220.296 491.524L220.899 490.8L223.009 483.053L222.909 482.401L222.306 481.026L222.206 480.302L222.708 478.926L224.417 476.464L224.919 475.234V474.003L224.618 472.917L224.517 471.758L225.019 470.528L226.125 469.442L227.633 468.356L228.839 467.27L229.241 465.894L228.437 464.374L226.929 463.215L225.12 462.202L223.512 461.116L222.507 459.668L223.11 458.871L224.517 458.075L225.924 456.844L226.226 455.396L225.522 454.455L224.718 453.514L224.517 452.355L225.422 451.414L228.236 450.038L229.241 449.097L230.648 448.156L232.356 448.301L234.064 448.735L235.472 448.663L235.673 447.866L235.874 446.274L236.276 445.839L237.582 445.405L238.587 444.608L240.296 442.871L247.632 437.368L258.486 431.07L260.496 428.97L262.707 425.567L263.813 424.626L264.918 424.192H265.823H266.828H268.034L270.245 423.178L272.656 419.848L274.968 418.834L275.471 418.689L278.686 417.82L280.295 417.241L281.501 416.372L283.41 413.838L284.516 413.114L286.928 412.752H287.832H290.646L291.651 412.173L291.752 412.028Z" fill="#88A4BC" stroke="white" stroke-width="0.5625" stroke-linejoin="round"/>
<path d="M263.008 561.607H263.109L265.621 559.869L267.129 559.29L267.832 559.145L268.134 559L268.234 558.711L268.435 558.132L269.239 556.756L272.455 552.991L272.656 552.774L272.958 553.064L273.661 553.281L274.365 553.353L275.169 553.715L275.269 554.005L276.073 555.38L276.978 556.032L278.284 556.828L278.988 557.77L277.882 558.856L276.676 558.494L276.174 558.421L275.571 558.276L274.566 557.697L273.561 556.466L273.058 556.249L272.757 556.104L272.556 555.887L272.455 555.308L271.45 555.453L270.747 555.67L270.345 556.032L270.244 556.684L272.355 557.625L272.958 558.059L273.159 558.711L272.958 559.218L272.656 559.797L272.455 560.593L272.656 561.028L273.963 561.534L274.566 561.969L273.561 562.331L272.254 562.548L269.44 562.765L267.933 562.62L265.219 562.114L264.013 561.969L263.008 561.607ZM335.569 582.603L334.966 581.517L333.66 580.793L332.152 580.141L331.047 579.779L330.846 579.852L330.745 579.924L330.243 580.358L330.042 580.431L329.841 580.503L329.439 580.576L327.63 580.793L327.228 580.865L326.625 581.01L326.323 581.155L326.122 581.227L325.62 581.589L325.218 582.024L324.916 582.386L324.615 582.748L323.509 583.978L322.906 584.413L321.6 585.282L321.298 585.426L321.097 585.644L320.796 586.585V587.743V588.467L321.198 589.264V589.481V589.626L320.997 589.843L320.796 590.06L320.092 590.639L319.891 590.784V591.074L319.992 591.653V591.942L319.891 592.087L319.791 592.232L317.982 594.694L317.68 594.983L317.178 595.273L315.067 596.142L314.263 596.648L313.459 597.228L312.756 597.952L312.253 598.241L311.751 598.531L310.444 598.965H310.344V598.82L309.138 598.893L308.334 598.748L307.63 598.386L307.128 598.024L306.625 597.517L304.515 594.694L298.585 589.336L295.269 587.309L287.631 583.472L289.339 583.254L291.349 582.53L297.781 578.983L299.59 578.476L301.701 578.404L299.188 577.897L296.977 578.548L294.867 579.49L292.756 579.996L287.329 580.358L286.425 579.996L286.023 579.272L286.324 578.548L287.631 578.042L285.319 574.06L281.5 570.295L280.495 568.847L279.993 567.471L282.003 568.847L282.405 569.064L282.807 569.281L283.51 570.512L283.812 571.019L284.817 571.308L286.224 571.453L289.239 571.381L288.435 571.091L285.922 570.584L285.219 570.295L284.817 570.005L284.616 569.716L284.113 569.209L283.41 568.05L283.711 566.602L284.616 565.227L285.922 564.286L288.937 566.24L290.646 566.53L291.45 565.154L294.063 566.096L295.068 566.675L295.771 567.471L296.173 566.892V566.24L295.872 565.661L295.269 565.154L295.47 565.082L296.374 565.154L292.656 564.141L290.847 563.417L290.344 562.331L291.349 561.607L293.359 561.1L295.671 560.81H297.279V560.521L297.178 560.376L296.776 560.014L296.977 559.942H297.178L297.279 559.869V559.58L289.44 560.593L287.028 560.376L285.822 559.435L286.224 557.987L287.43 556.684L288.937 556.104L290.244 555.236L293.761 551.471L296.073 550.602L296.374 550.312L296.676 549.733L296.575 549.371L295.269 549.806L293.761 550.602L293.058 551.109L292.455 551.76H291.952V550.602L290.545 551.398L287.932 554.222L286.525 555.308L284.817 555.96L282.706 556.394L281.098 556.177V554.946L279.993 555.67L278.485 555.091L277.078 554.077L276.274 552.774L276.676 551.398L276.576 551.326L277.179 551.181L277.681 550.964L278.385 550.53L279.289 549.371L279.792 548.864L280.797 548.14L281.299 547.706L281.199 547.127L280.596 545.824L279.993 545.172L278.787 544.665L273.259 543.941L271.551 543.217L271.752 541.769L272.254 540.176L277.681 533.878L278.083 532.647L277.38 531.054L277.279 530.258L277.581 526.927L278.184 525.334L280.696 522.149L281.902 520.846L282.505 520.484L284.415 520.411L285.42 520.628H286.023L286.827 520.411L287.329 519.904L287.932 517.95L290.143 515.633L292.254 514.474L293.058 513.099V511.578L293.158 510.999L293.56 510.058L294.364 509.189L296.877 507.452L298.384 506.076L299.188 505.569L299.691 504.99L299.791 504.338L298.083 502.963L297.48 502.239L297.781 501.37L298.384 499.994L299.389 498.257L300.796 497.026L303.51 496.664L304.314 495.94L304.113 494.926L302.605 492.465L301.5 491.089L298.485 488.483L297.178 486.166L296.575 483.994L296.475 483.415L296.877 482.98L297.48 482.836H298.384L299.289 482.763L300.193 482.329L303.007 479.94L305.721 479.505L305.118 483.704L306.424 484.935L307.228 485.008L308.032 484.79L308.836 484.428L309.64 483.994L310.444 483.922L311.55 484.284L314.163 485.587L314.665 486.094L314.967 486.528L315.168 487.397L316.273 488.917L316.374 491.306L315.57 492.61L315.67 492.899L315.771 493.116L316.374 493.84L316.876 494.926L317.278 495.433L317.58 495.795L320.595 497.026L320.896 497.316L321.097 497.75L321.399 499.27L321.7 499.922L321.801 499.994L322.102 500.356L322.806 500.791L323.208 500.936L324.313 501.732L324.816 503.542L325.419 504.121L325.821 504.194H326.122H326.323H326.826L327.127 504.121L327.931 504.049L329.941 501.008L330.544 500.429L330.946 499.994L333.861 498.546L334.866 497.895L335.469 497.098L335.77 496.302L336.574 495.433L337.378 495.288L338.283 495.361L339.087 495.578L339.991 495.723L340.795 495.65L342.504 495.216L343.408 495.071L345.619 494.854L346.624 495.795L347.328 497.822L348.132 498.764L348.835 499.777L350.242 502.528L351.147 503.18L352.956 503.687L353.659 504.338L354.363 504.773L355.87 505.207L354.262 507.741L352.654 509.117L349.941 510.71L346.725 511.94L346.021 512.375L345.318 513.461L344.815 516.502L345.418 516.864L346.122 517.008L350.041 515.271L352.654 514.402L354.463 514.185L355.368 514.981L355.669 515.778L355.77 516.574L355.669 517.226L355.368 518.239L355.066 518.818L354.564 519.398L351.046 522.004L347.931 525.624L347.428 526.638L347.127 527.506V528.086L347.227 528.448L347.428 528.665L347.73 528.954L348.433 529.172H349.338L350.242 529.027L351.147 528.882L351.951 529.027L353.458 529.968L354.262 530.258L354.865 530.33H355.669L356.272 530.402L357.076 530.692L357.88 531.126L358.584 531.561L359.488 531.995L362.704 532.357L363.709 532.14L364.815 531.778L368.031 529.606L369.337 529.172L370.342 528.52L370.644 528.23L371.146 527.796L371.95 527.289L372.553 527.434L372.855 527.868L373.056 528.592L373.558 529.027L374.865 529.461L377.277 527.724L378.181 526.276L378.985 523.38L379.387 522.511L380.191 521.932L380.995 521.642L382 521.57L383.005 521.714L383.91 521.932L384.714 522.004L385.417 521.932L386.824 521.425L387.729 521.352H388.432L389.136 521.642L389.437 523.307L388.935 528.592L391.548 533.443L395.467 538.222L403.608 543.507L404.01 543.869L404.713 544.665L402.804 545.896L400.392 547.054L399.688 547.344L399.085 547.489L394.864 548.285L393.859 548.72L392.854 549.444L391.548 549.226L388.432 550.312L384.814 550.819L381.9 551.905L380.392 552.195L378.483 552.122L377.679 552.195L377.076 552.412L376.674 552.629L376.171 552.846L375.267 552.919L374.764 553.064L373.759 553.643L373.056 553.715L372.453 554.512L371.548 555.525L370.845 556.684L368.935 558.856L368.131 560.014L367.729 561.1V561.752L368.131 563.272L368.232 564.068V564.575L367.428 566.747L367.629 568.268L366.825 570.005L366.222 570.729L365.619 571.308L364.714 571.815L363.91 571.96L363.006 571.743L362.302 571.236L360.996 569.933L360.091 569.281L358.986 568.774L356.373 568.268L355.569 568.123L355.066 567.833L354.363 567.399L353.76 566.964L352.755 566.24L348.333 567.761L346.524 569.064L345.619 570.44L345.318 571.164L344.815 573.842L343.107 576.956L342.705 577.897L342.403 580.648L342.102 580.865L341.901 581.082L341.599 581.227L340.896 581.517L338.886 582.82L338.484 582.965L337.981 583.11L337.68 583.182H337.378H337.177H336.775L336.373 583.037L336.072 582.965L335.569 582.603Z" fill="#88A4BC" stroke="white" stroke-width="0.5625" stroke-linejoin="round"/>
<path d="M648.124 213.507V213.435L648.024 213.29L648.727 209.815L647.923 208.874L640.587 207.281H639.381L636.969 206.919L635.361 205.326L632.848 204.023L632.547 203.806L630.537 201.706L629.431 201.199L626.919 200.548L622.597 199.969L620.989 199.896L617.773 200.113L614.658 199.896L609.633 199.172L608.527 199.245L607.321 199.462L606.015 200.258L605.311 200.982L604.909 201.634V202.285L605.211 202.937L606.417 204.168L606.819 204.819L606.417 205.399L605.412 205.833L600.387 206.991L598.578 207.643L597.372 207.933L595.764 207.788L592.849 207.715L589.03 208.584H588.025L587.121 208.295L586.417 207.788L584.809 205.905L584.508 205.471L585.312 205.181L586.92 204.24L587.925 203.371L589.131 201.417L589.332 200.62L589.131 199.969L588.628 198.81V198.014L590.437 194.466L593.151 183.534L596.065 176.221L598.276 172.891L612.346 158.339L612.849 157.615L613.351 156.673L612.849 154.501L613.251 153.271L614.055 152.329L615.361 151.533L618.376 150.23L619.281 149.361L620.688 147.044L622.597 144.583L625.21 142.193L628.125 140.021L631.24 138.211H633.652L636.768 138.863L642.295 140.601L643.903 140.745L645.712 140.383L647.421 139.804L648.828 139.008L650.938 137.415L651.943 137.125L654.054 136.908L654.757 136.691L661.792 131.985L663.199 131.406L667.923 130.32L669.631 129.596L672.546 127.713L674.154 126.989L678.274 125.903L679.581 125.397L680.586 124.311L681.39 122.935L681.993 121.487L682.294 120.256V118.808L681.792 117.65L680.887 116.636L679.581 115.695L679.179 115.333L678.877 114.899L678.576 114.537L677.973 114.247H676.666L676.365 114.175L675.661 113.523L675.46 112.944L675.862 112.437L678.777 109.686L679.38 108.745L681.088 102.808L681.993 100.925L682.294 98.9707L682.194 98.5363L682.093 97.9571L680.586 95.4231L680.485 94.2647L681.892 93.6131L681.691 93.0339L683.098 88.8347L683.5 88.1831L683.902 87.8211L684.103 87.4591L685.611 86.3007L685.51 85.7215L685.108 85.1423L684.204 84.7803L683.5 84.9251L682.395 85.3595L681.39 85.6491L680.988 85.3595L680.385 84.1287L679.179 83.4047L677.571 82.7531L676.063 81.9567L676.767 81.6671L677.068 81.5947V81.1603L676.264 80.8707L673.852 79.5675L673.35 79.2055L673.149 78.6263L673.551 77.7575L673.35 77.1783L671.139 76.3819L666.114 75.4407L649.833 75.0787L648.627 74.9339L647.521 74.4271L646.818 73.5583V72.9067L647.22 71.0967L647.32 70.0107L646.918 68.9971L646.717 68.7075L646.617 64.2187L642.195 48.6527L637.773 33.0867H639.381L665.712 32.9419L666.516 33.3039L667.119 33.5211L670.737 37.6479V37.7203L671.943 38.5891L672.546 39.4579L672.847 40.4715L672.646 41.6299L671.44 44.3087V45.0327L672.244 45.9015L674.656 47.2047L676.063 48.2907V50.5351L676.264 51.0419L676.566 51.3315H676.968L677.671 51.1143V51.6935L677.772 52.2727L678.174 52.5623L678.877 52.4899L678.978 52.4175L680.385 51.6211L680.988 51.5487L681.088 51.6211L681.591 51.7659L681.691 52.0555L681.792 52.4175L681.993 52.7795L682.294 52.8519H682.797L682.998 52.9243L684.304 53.6483L684.405 53.7207V53.7931L685.108 54.0103L685.711 54.0827H685.812L686.415 54.0103L687.52 53.7931L687.721 53.8655L688.827 54.1551L689.329 55.0963L688.626 56.3271L688.525 56.4719V56.5443V56.9063L688.927 57.4131H689.028V57.4855L689.128 57.5579L689.43 57.6303L690.334 56.5443L690.736 56.3271L690.837 56.3995L691.44 56.5443L692.143 57.0511L692.646 57.6303L692.847 58.1371L692.947 58.2095L693.45 59.0783L694.857 59.2231L697.47 58.7887L697.671 59.1507L698.374 60.0195L700.183 64.8703L700.987 67.1871L700.686 67.4767L700.485 67.6939L700.083 68.3455L699.882 68.7799V69.4315L699.982 69.5039L700.284 69.5763L700.786 69.8659L700.887 69.7935L700.786 69.7211L701.088 69.6487H701.188L701.691 69.7935L702.093 70.0107L702.193 70.2279L701.992 70.8795L702.093 71.1691L703.198 72.5447L704.505 77.0335L704.304 77.5403V79.4951L704.203 81.5947L704.103 82.3187L703.701 83.2599V83.9839L703.902 84.3459V84.4183L704.304 84.6355L704.706 84.9975V85.1423L704.806 85.5767L704.404 85.9387L703.801 86.0835L703.399 86.3007L703.701 87.1695L703.801 87.2419L704.103 87.5315L704.806 87.8935L706.113 88.5451L707.821 90.0655L708.625 90.4999L709.128 90.6447L709.932 90.5723L711.238 89.8483H711.339L712.746 89.7035L714.153 90.2103L714.856 90.5723L715.66 91.1515L715.258 91.5135L714.957 92.1651V92.8167L715.359 93.3959L715.962 93.8303L716.062 94.1923L715.861 94.4819V94.6267L715.761 95.2059L715.66 95.3507L716.464 96.2195L717.871 97.0883L718.072 97.5951L717.972 97.6675L717.871 97.7399L717.369 97.8123L716.766 97.5951L716.263 97.6675L715.962 97.8123V97.9571L715.861 98.0295L715.962 98.2467L716.062 98.3915L716.766 99.4051L716.866 99.9119V100.274L716.665 100.636L716.464 100.708V100.781L716.263 100.853L716.163 100.925L715.861 100.998L715.66 101.07L715.56 101.143L715.359 101.287L715.258 101.36L715.158 101.649V101.722V101.867L715.057 101.939L715.158 102.084L715.258 102.446L715.459 102.808L715.66 103.097V103.315L715.761 103.459V103.532L715.861 104.183V104.328L716.062 104.69L716.163 104.763L716.364 104.907L716.565 105.052L716.665 105.197L717.067 105.342H717.168L717.268 105.269H717.57L717.771 105.125V104.98V104.907V104.835L717.871 104.69L718.072 104.763L718.575 105.342L720.585 108.745L720.283 109.034V109.107L720.082 109.179H719.982H719.781L719.178 109.251L718.876 109.324L718.776 109.396L718.374 109.613L718.273 109.686L718.173 109.831V109.975V110.048L718.273 110.193L718.374 110.265L718.675 110.41L718.374 110.772L718.474 110.989L719.379 111.568L719.479 111.93H719.379H719.178H719.077L718.977 111.858L718.374 111.713L718.173 111.641H717.972L717.771 111.713L717.57 111.785L717.268 112.003L716.967 112.509V112.582V112.654V112.944L717.067 113.089V113.233H717.168V113.378V113.451H717.067V113.523L717.168 113.668L717.067 114.681L717.268 115.84L718.474 118.446L719.379 119.46L719.68 119.822L719.479 120.039L719.781 120.401L719.881 120.473L719.982 120.546L720.786 120.763L721.59 121.487L722.494 123.369L721.489 125.035H721.389L720.886 125.252L720.384 125.397L720.283 125.469L720.183 125.614V125.831L720.082 126.048H719.982L719.881 126.121L719.68 126.193L719.479 126.265V126.338V126.555L717.771 127.931L717.067 128.944L716.565 130.103V130.32L716.464 130.465L716.364 131.044V131.116V131.189V131.261L716.062 133.071L715.66 134.012V134.664L715.761 134.809V134.881V135.026L715.56 135.315L715.861 135.822V136.039L715.66 136.257H715.56L714.856 136.401L714.555 136.546H714.454V136.619L714.354 136.763L714.655 137.27V137.415V137.56L714.153 137.632L714.052 137.705L713.851 137.849V138.067L714.253 138.429L714.354 138.573L714.253 139.08L714.052 139.804V139.877V140.094L713.449 143.641L714.052 149.578L714.555 154.574L716.766 158.266L717.57 159.135L718.072 160.149L717.771 161.597L716.766 164.131L716.967 166.303L722.997 174.773L723.6 176.149L723.499 177.09L722.695 178.104L722.293 179.479L722.193 180.927L722.695 182.013L723.198 182.375L723.901 182.593L724.806 182.737L725.71 182.81L726.514 182.955L727.117 183.244L727.419 183.461L729.027 184.041L729.73 185.054L730.836 187.154L732.042 188.095L733.047 188.747L733.851 189.398L734.152 190.557V190.919V191.136L734.253 192.005L734.755 193.235L735.66 194.177L746.514 201.561L749.529 204.602L750.031 204.819L750.634 205.037L750.534 205.326L750.835 205.471L752.041 206.195L753.046 206.919L754.252 207.571L759.478 209.887L761.89 210.467L762.292 210.539L765.709 212.783L764.302 213.073L747.72 216.041L746.514 216.186L742.092 216.331L729.529 213.363L728.826 213.218L724.906 213.073H724.102L720.484 213.363L719.781 213.507L718.876 213.869L718.273 214.304L717.469 214.811L716.665 215.173L714.354 215.607L711.942 215.462L707.319 214.666L703.701 214.521L702.595 214.811L695.661 216.403L693.751 216.765L691.038 216.693H690.636L667.521 212.566L648.426 213.435L648.124 213.507Z" fill="#88A4BC" stroke="white" stroke-width="0.5625" stroke-linejoin="round"/>
<path d="M411.145 417.603L411.648 420.572L411.547 422.164L410.743 424.626L409.939 426.002L406.924 428.101L405.919 428.536L404.412 429.042L403.306 429.115H402.301L396.07 428.68L395.467 429.984L395.97 432.662L394.864 436.355L394.261 437.224L393.457 437.875L392.553 438.382L388.935 439.83L385.317 440.771L383.608 440.916L382.302 442.219L378.784 441.64L373.257 440.844L372.151 440.988L370.845 441.278L370.342 441.712L370.041 442.292L366.925 447.722L363.709 451.559L363.006 451.848L361.197 452.283L356.976 452.066H355.569L341.599 453.948L340.293 457.423L339.69 458.002L338.785 458.509L337.981 458.364L337.378 457.93L336.976 457.351L336.474 456.699L335.77 456.265L334.866 455.975L331.047 455.251L329.841 455.179L329.037 455.324L328.434 455.541L323.509 458.22L321.097 457.64L317.077 456.989L314.062 456.265L309.64 457.93L304.716 456.265L299.992 455.251L297.681 454.382L296.676 453.658L295.972 453.007L295.369 451.993L294.867 451.631L294.063 451.414L292.053 451.704L290.244 451.342L288.234 449.387L287.329 448.735L286.525 448.373L285.721 448.156L285.018 447.649L284.716 446.853L285.621 443.957L284.817 443.16L284.214 442.798L284.113 442.726L284.013 442.654V442.581L283.912 442.509L283.611 442.074L284.013 441.35L285.018 440.409L292.756 436.934L294.666 435.269L296.274 434.907L297.078 435.124L297.982 435.269L298.786 435.052L299.289 434.4L299.791 433.386L299.691 431.576L300.193 430.346L300.595 427.45L296.776 418.472L295.972 417.386L294.867 414.997L292.957 412.752L291.751 412.028L297.781 398.272L299.188 397.042L301.098 397.186L302.605 397.693L304.213 398.055L306.022 397.476L325.419 385.602L327.328 384.806L328.434 385.023L329.037 385.964L330.142 390.164L330.946 391.25L332.655 392.191L334.866 392.698L355.267 392.48V391.177L355.569 390.308L356.272 389.512L357.177 388.571L357.679 388.281L358.182 388.209L358.483 387.992L358.986 383.648L359.689 381.476L360.594 379.376L361.8 377.783L363.207 379.086L363.709 381.91L365.116 382.779L367.227 383.286L372.754 385.385L379.186 387.123L381.799 388.426L383.106 390.743L383.809 393.349L385.417 395.811L387.93 397.693L395.367 398.634L398.08 400.155L399.588 402.472L399.789 405.223L399.688 407.467L399.889 409.712L401.296 414.2L402.804 416.879L404.11 417.748L406.221 417.965L411.145 417.603Z" fill="#88A4BC" stroke="white" stroke-width="0.5625" stroke-linejoin="round"/>
<path d="M409.939 426.001L416.271 427.087L417.376 427.522L418.583 428.101L418.784 428.68L418.683 429.332L417.879 430.635L417.678 431.287L417.578 432.59L417.678 433.603L418.08 434.907L419.386 437.296L419.889 438.599V439.613L418.583 441.929L418.181 443.088L416.974 443.739L416.171 444.319L417.176 444.681L417.276 445.549L416.774 446.491L415.668 447.07L415.969 447.649L416.07 448.735L416.171 449.387L416.472 449.749L416.874 449.966L417.176 450.4L417.276 451.197L417.176 451.921L416.874 452.427L416.774 453.007L417.276 453.731L418.08 453.948L418.984 453.803L419.688 453.875L419.989 454.672L419.789 455.034L418.683 455.396L417.176 457.568L416.774 458.002L416.171 458.292L415.467 458.364L414.864 458.581L414.261 459.595L413.558 460.102L411.849 460.826L412.452 461.55L411.849 462.491L410.844 463.432L410.241 464.301L410.442 464.953L410.543 465.387L410.643 465.604L411.447 466.618L411.548 466.835L411.749 467.487L411.849 469.586L411.749 470.527L411.045 472.12L410.744 472.627L410.341 472.989L410.141 473.206L409.136 474.22L410.241 475.233V475.523L410.141 475.885L409.939 476.247L409.638 476.899L409.437 477.188L409.136 477.333L407.929 477.623L407.729 477.695L405.719 480.084L405.316 480.446L405.015 480.519L404.613 480.591L404.111 480.663L403.508 480.808L402.904 481.025L401.899 481.677L401.598 482.111L401.397 482.546V483.27L401.598 484.501V484.863L401.096 486.528L400.995 486.962V487.686L401.296 488.121L401.598 488.845L399.99 489.207L397.879 489.931L396.573 490.655L395.367 491.741L394.864 492.537L394.664 493.261L394.362 494.637L393.558 496.591L391.95 499.705L391.749 500.211L390.844 501.732L390.041 502.166L389.136 502.456H387.226L385.619 502.311L384.513 502.094L381.196 499.777L380.191 499.343L379.086 499.053L378.282 499.198L377.679 499.632L377.478 499.849L377.277 499.994V500.139L376.976 500.573L376.574 501.08L375.769 501.587L374.966 501.949L364.111 505.714L362.805 505.931H361.699L355.871 505.207L354.363 504.773L353.659 504.338L352.956 503.687L351.147 503.18L350.243 502.528L348.836 499.777L348.132 498.763L347.328 497.822L346.624 495.795L345.619 494.854L343.409 495.071L342.504 495.216L340.796 495.65L339.991 495.723L339.087 495.578L338.283 495.361L337.379 495.288L336.574 495.433L335.771 496.302L335.469 497.098L334.866 497.895L333.861 498.546L330.946 499.994L330.544 500.429L329.941 501.008L327.931 504.049L327.128 504.121L326.826 504.193H326.324H326.123H325.821L325.419 504.121L324.816 503.542L324.314 501.732L323.208 500.935L322.806 500.791L322.103 500.356L321.801 499.994L321.701 499.922L321.399 499.27L321.098 497.75L320.896 497.315L320.595 497.026L317.58 495.795L317.279 495.433L316.876 494.926L316.374 493.84L315.771 493.116L315.671 492.899L315.57 492.609L316.374 491.306L316.274 488.917L315.168 487.397L314.967 486.528L314.666 486.093L314.163 485.587L311.55 484.283L310.444 483.921L309.641 483.994L308.836 484.428L308.033 484.79L307.229 485.007L306.424 484.935L305.118 483.704L305.721 479.505L308.736 477.84L312.053 471.903L312.454 470.962L312.756 468.428L313.459 467.487L314.766 466.401L320.997 462.491L324.514 461.55L324.816 460.898L324.916 460.464L323.509 458.219L328.434 455.541L329.037 455.323L329.841 455.179L331.047 455.251L334.866 455.975L335.771 456.265L336.474 456.699L336.976 457.351L337.379 457.93L337.981 458.364L338.786 458.509L339.69 458.002L340.293 457.423L341.599 453.948L355.569 452.065H356.976L361.197 452.283L363.006 451.848L363.709 451.559L366.926 447.721L370.041 442.291L370.343 441.712L370.845 441.278L372.151 440.988L373.257 440.843L378.784 441.64L382.302 442.219L383.609 440.916L385.317 440.771L388.935 439.83L392.553 438.382L393.458 437.875L394.261 437.223L394.864 436.355L395.97 432.662L395.468 429.983L396.071 428.68L402.301 429.115H403.306L404.412 429.042L405.919 428.535L406.924 428.101L409.939 426.001Z" fill="#88A4BC" stroke="white" stroke-width="0.5625" stroke-linejoin="round"/>
<path opacity="0.8" d="M447.07 556.813H424.96V572.741H447.07V556.813Z" fill="#FF0000" stroke="white" stroke-width="0.75"/>
<path opacity="0.8" d="M618.043 516.068H595.933V531.996H618.043V516.068Z" fill="#E51414" stroke="white" stroke-width="0.75"/>
<path d="M436 564.493C435.222 564.493 434.556 564.277 434 563.844C433.444 563.41 433.028 562.842 432.75 562.137C431.694 559.104 430.361 556.261 428.75 553.607C427.194 550.953 425 547.839 422.167 544.264C419.333 540.689 417.028 537.277 415.25 534.028C413.528 530.778 412.667 526.851 412.667 522.247C412.667 515.91 414.917 510.548 419.417 506.161C423.972 501.72 429.5 499.5 436 499.5C442.5 499.5 448 501.72 452.5 506.161C457.056 510.548 459.333 515.91 459.333 522.247C459.333 527.176 458.361 531.292 456.417 534.596C454.528 537.846 452.333 541.069 449.833 544.264C446.833 548.164 444.556 551.413 443 554.013C441.5 556.559 440.25 559.267 439.25 562.137C438.972 562.896 438.528 563.491 437.917 563.925C437.361 564.304 436.722 564.493 436 564.493ZM436 530.372C438.333 530.372 440.306 529.586 441.917 528.016C443.528 526.445 444.333 524.522 444.333 522.247C444.333 519.973 443.528 518.05 441.917 516.479C440.306 514.908 438.333 514.123 436 514.123C433.667 514.123 431.694 514.908 430.083 516.479C428.472 518.05 427.667 519.973 427.667 522.247C427.667 524.522 428.472 526.445 430.083 528.016C431.694 529.586 433.667 530.372 436 530.372Z" fill="#E51414"/>
<path d="M607 525.493C606.222 525.493 605.556 525.277 605 524.844C604.444 524.41 604.028 523.842 603.75 523.137C602.694 520.104 601.361 517.261 599.75 514.607C598.194 511.953 596 508.839 593.167 505.264C590.333 501.689 588.028 498.277 586.25 495.028C584.528 491.778 583.667 487.851 583.667 483.247C583.667 476.91 585.917 471.548 590.417 467.161C594.972 462.72 600.5 460.5 607 460.5C613.5 460.5 619 462.72 623.5 467.161C628.056 471.548 630.333 476.91 630.333 483.247C630.333 488.176 629.361 492.292 627.417 495.596C625.528 498.846 623.333 502.069 620.833 505.264C617.833 509.164 615.556 512.413 614 515.013C612.5 517.559 611.25 520.267 610.25 523.137C609.972 523.896 609.528 524.491 608.917 524.925C608.361 525.304 607.722 525.493 607 525.493ZM607 491.372C609.333 491.372 611.306 490.586 612.917 489.016C614.528 487.445 615.333 485.522 615.333 483.247C615.333 480.973 614.528 479.05 612.917 477.479C611.306 475.908 609.333 475.123 607 475.123C604.667 475.123 602.694 475.908 601.083 477.479C599.472 479.05 598.667 480.973 598.667 483.247C598.667 485.522 599.472 487.445 601.083 489.016C602.694 490.586 604.667 491.372 607 491.372Z" fill="#E51414"/>
</g>
<defs>
<clipPath id="clip0_32_107">
<rect width="1005" height="724" fill="white"/>
</clipPath>
</defs>
</svg>
